<?xml version="1.0" encoding="utf-8"?>
<!-- Generator: Adobe Illustrator 26.5.0, SVG Export Plug-In . SVG Version: 6.00 Build 0)  -->
<svg version="1.1" id="layer" xmlns="http://www.w3.org/2000/svg" xmlns:xlink="http://www.w3.org/1999/xlink" x="0px" y="0px"
	 viewBox="0 0 352 768" style="enable-background:new 0 0 352 768;" xml:space="preserve">
<g>
</g>
<g>
	<path d="M298.38,117.5c-0.5-0.17-1-0.5-1.5-1s-0.83-1-1-1.5l-0.5-3.5l0.25-7.5l-0.25-0.25V88.87c-0.33-3.33-0.54-6.75-0.62-10.25
		c-0.08-3.5-0.38-6.92-0.88-10.25v-12l-0.5-6.75h-0.5l-2.75,5.25c-0.5,0.5-1.04,0.75-1.62,0.75c-0.58,0-1.21,0-1.88,0
		c0,0.83-0.12,1.67-0.38,2.5c-0.25,0.83-0.71,1.5-1.38,2c-0.5,0.5-1.12,0.75-1.88,0.75s-1.54,0-2.38,0
		c-2.33-0.33-4.62-0.71-6.88-1.12c-2.25-0.42-4.38-1.12-6.38-2.12c-0.33-0.5-0.54-1-0.62-1.5c-0.08-0.5-0.12-1.08-0.12-1.75
		c0.17-0.5,0.5-1,1-1.5s1-0.83,1.5-1h2.5l7.75,1.5l1-6.25v-11l-0.25-9.62l0.25-0.75c-1.5-0.5-3-0.92-4.5-1.25
		c-1.5-0.33-3.17-0.42-5-0.25l-4.5,0.25l-1.25-0.25v0.5c0.5,0.5,0.79,1.04,0.88,1.62c0.08,0.58,0.12,1.21,0.12,1.88
		c-1.17,1.83-2.04,3.86-2.62,6.06c-0.58,2.21-1.21,4.4-1.88,6.56h2l3.25-0.25c0.5-2,0.83-4.06,1-6.19c0.17-2.12,0.92-4.02,2.25-5.69
		c0.5-0.33,1-0.54,1.5-0.62c0.5-0.08,1.08-0.12,1.75-0.12c0.5,0.17,1,0.5,1.5,1s0.83,1,1,1.5v2.88c-0.67,2-1.12,4.12-1.38,6.38
		s-0.96,4.29-2.12,6.12c-1.83,1.5-3.96,2.21-6.38,2.12c-2.42-0.08-4.71,0.04-6.88,0.38c-0.67,1.67-1.33,3.38-2,5.12
		c-0.67,1.75-1.46,3.46-2.38,5.12c-0.5,0.5-1.04,0.75-1.62,0.75c-0.58,0-1.21,0-1.88,0c-0.5-0.17-1-0.5-1.5-1s-0.83-1-1-1.5v-2l2-6
		c-1.33-0.17-2.71-0.25-4.12-0.25c-1.42,0-2.62-0.42-3.62-1.25c-1.17-1.5-1.71-3.25-1.62-5.25c0.08-2,0.12-4,0.12-6l0.25-4h-0.5
		c-1,1.17-1.88,2.5-2.62,4s-1.79,2.67-3.12,3.5h-2c-0.5-0.17-1-0.5-1.5-1s-0.83-1-1-1.5v-2.75c3.33-5.42,7.04-10.58,11.12-15.5
		c4.08-4.92,8.04-9.71,11.88-14.38h2.12c0.5,0.17,1,0.5,1.5,1s0.83,1,1,1.5v2l-4.12,6.25c2.75,0.5,5.46,0.92,8.12,1.25
		c2.67,0.33,5.33,0.58,8,0.75l5.75-0.25c1.83,0.5,3.67,1.08,5.5,1.75c1.83,0.67,3.5,1.75,5,3.25c0.5,0.67,0.75,1.42,0.75,2.25
		c0,0.83,0,1.67,0,2.5l-0.25,9.12l0.25,6.5h0.5c2.83-5.5,5.38-11.1,7.62-16.81c2.25-5.71,4.96-11.14,8.12-16.31
		c0.5-0.5,1.08-0.75,1.75-0.75c0.67,0,1.33,0,2,0c0.5,0.17,1,0.5,1.5,1s0.83,1,1,1.5v2c-1.5,2.5-2.92,5.12-4.25,7.88
		c-1.33,2.75-2.42,5.54-3.25,8.38h1c1.67-0.5,3.38-0.67,5.12-0.5c1.75,0.17,3.46,0.08,5.12-0.25c0.83-2.83,1.83-5.67,3-8.5
		c1.17-2.83,2.62-5.5,4.38-8c0.5-0.33,1-0.54,1.5-0.62c0.5-0.08,1.08-0.12,1.75-0.12c0.5,0.17,1,0.5,1.5,1s0.83,1,1,1.5V16
		c-1,2-1.92,4.04-2.75,6.12c-0.83,2.08-1.67,4.12-2.5,6.12c2.83,0.17,5.62,0.25,8.38,0.25S335.5,29,338,30
		c0.5,0.5,0.75,1.06,0.75,1.69s0,1.27,0,1.94c-0.17,0.5-0.5,1-1,1.5s-1,0.83-1.5,1H331l-8.75-0.5v19.5
		c2.17,0.33,4.46,0.42,6.88,0.25c2.42-0.17,4.54,0.25,6.38,1.25c0.33,0.5,0.54,1,0.62,1.5c0.08,0.5,0.12,1.08,0.12,1.75
		c-0.17,0.5-0.5,1-1,1.5s-1,0.83-1.5,1l-9.5,0.25L323,62.37v7.75l1,10.5c2,0,4.04,0,6.12,0c2.08,0,3.88,0.5,5.38,1.5
		c0.33,0.5,0.54,1,0.62,1.5c0.08,0.5,0.12,1.08,0.12,1.75c-0.17,0.5-0.5,1-1,1.5s-1,0.83-1.5,1l-2.5,0.25L324,87.87v1.5l0.25,0.25
		v15.62l0.75,3.5h11.25c0.5,0.17,1,0.5,1.5,1s0.83,1,1,1.5v2c-0.17,0.5-0.5,1-1,1.5s-1,0.83-1.5,1L335,116h-11l-5.62-0.5h-10
		l-5-0.25c-0.67,0.67-1.42,1.25-2.25,1.75C300.29,117.5,299.38,117.66,298.38,117.5z M278.38,115.5c-2-0.67-4.04-1.33-6.12-2
		c-2.08-0.67-4.12-1.42-6.12-2.25c-0.5-0.5-0.75-1.04-0.75-1.62s0-1.21,0-1.88c0.17-0.5,0.5-1,1-1.5s1-0.83,1.5-1h2
		c1.67,0.17,3.17,0.5,4.5,1c1.33,0.5,2.75,1,4.25,1.5V105l-0.25-2c0.33-2.5,0.62-4.98,0.88-7.44c0.25-2.46,0.29-5.02,0.12-7.69
		l-0.75-12.25c-5.5-1.33-11.27-2.04-17.31-2.12c-6.04-0.08-11.98-0.38-17.81-0.88c-1,2.17-1.83,4.33-2.5,6.5
		c-0.67,2.17-1.83,4.17-3.5,6c-0.5,0.33-1,0.54-1.5,0.62c-0.5,0.08-1.08,0.12-1.75,0.12c-0.5-0.17-1-0.5-1.5-1s-0.83-1-1-1.5v-2
		c1.67-3.5,3.21-7.08,4.62-10.75c1.42-3.67,3.29-7.08,5.62-10.25c0.5-0.5,1.04-0.75,1.62-0.75c0.58,0,1.21,0,1.88,0
		c0.5,0.17,1,0.5,1.5,1s0.83,1,1,1.5v2l-0.5,1.5c6.42,0.5,12.88,0.79,19.38,0.88c6.5,0.08,12.5,1.54,18,4.38
		c0.83,3.83,1.29,7.83,1.38,12c0.08,4.17,0.21,8.33,0.38,12.5l-1,9.38l0.25,6c-0.5,1.17-1.33,2.04-2.5,2.62
		c-1.17,0.58-2.25,1.21-3.25,1.88L278.38,115.5z M251.5,117.5c-0.5-0.17-1-0.5-1.5-1s-0.83-1-1-1.5l-0.25-2c0.67-2,1.21-4,1.62-6
		c0.42-2,0.79-4,1.12-6H248l-3.5,1l-2.75-1.5c-0.83-1.33-1.21-2.81-1.12-4.44c0.08-1.62,0.12-3.27,0.12-4.94
		c0.17-1.67,0.33-3.33,0.5-5c0.17-1.67,0.67-3.17,1.5-4.5c0.5-0.5,1.08-0.83,1.75-1c0.67-0.17,1.42-0.17,2.25,0
		c0.5,0.17,1,0.5,1.5,1s0.83,1,1,1.5v2c-0.67,1.17-1,2.5-1,4s-0.08,3-0.25,4.5h5.5c0.5-2.67,0.96-5.42,1.38-8.25
		c0.42-2.83,1.25-5.42,2.5-7.75c0.5-0.33,1-0.54,1.5-0.62c0.5-0.08,1.08-0.12,1.75-0.12c0.5,0.17,1,0.5,1.5,1s0.83,1,1,1.5v3
		c-0.5,1.67-0.92,3.42-1.25,5.25c-0.33,1.83-0.58,3.67-0.75,5.5l6,0.25c0.17-1.83,0.29-3.71,0.38-5.62
		c0.08-1.92,0.79-3.62,2.12-5.12c0.5-0.33,1-0.54,1.5-0.62c0.5-0.08,1.08-0.12,1.75-0.12c0.5,0.17,1,0.5,1.5,1s0.83,1,1,1.5v2.25
		c-0.67,2.17-1,4.44-1,6.81s-0.5,4.56-1.5,6.56c-0.83,0.67-1.83,0.96-3,0.88c-1.17-0.08-2.25-0.12-3.25-0.12l-7-0.25
		c-1,2.67-1.71,5.42-2.12,8.25c-0.42,2.83-1.33,5.5-2.75,8c-0.5,0.33-1,0.54-1.5,0.62C252.75,117.46,252.17,117.5,251.5,117.5z
		 M253.5,41.12c1-2.67,1.89-5.39,2.69-8.19c0.79-2.79,1.94-5.44,3.44-7.94l1.75-1v-0.5c-2-0.17-4.02-0.42-6.06-0.75
		c-2.04-0.33-3.98-0.75-5.81-1.25L246,26l2.5,1.25c0.5,0.5,0.75,1.12,0.75,1.88s0,1.46,0,2.12l-0.5,10.12l3,0.25L253.5,41.12z
		 M314.88,54.62V35.87h-2.25c-2,0.17-4,0.29-6,0.38c-2,0.08-3.92,0.29-5.75,0.62l-0.25,5.75v10.75l0.25,1.25h13.5l0.25,0.25
		L314.88,54.62z M316.62,80.12v-1c-0.33-2.83-0.58-5.67-0.75-8.5c-0.17-2.83-0.33-5.67-0.5-8.5l-1-0.25h-12.5l-0.75,0.25v6.25l1,11
		h3.75l5.25-0.25L316.62,80.12z M317.38,108.25v-0.75l-0.5-2.25V89.62l-0.25-2.25c-1.83-0.17-3.58-0.42-5.25-0.75
		c-1.67-0.33-3.42-0.42-5.25-0.25l-3.75,0.25v2l0.25,0.25v14.88l0.25,4.25L317.38,108.25z"/>
	<path d="M237,241.75l-2.75-1.5c-0.33-0.5-0.54-1-0.62-1.5c-0.08-0.5-0.12-1.08-0.12-1.75l1-1.75c4.17-1.33,8.46-2.46,12.88-3.38
		c4.42-0.92,8.83-1.88,13.25-2.88l0.25-0.25v-17.38l-2-0.25c-1.67,0.5-3.48,0.67-5.44,0.5c-1.96-0.17-3.86-0.08-5.69,0.25
		c-0.83-0.17-1.62-0.29-2.38-0.38c-0.75-0.08-1.46-0.38-2.12-0.88c-0.5-0.5-0.88-1.08-1.12-1.75c-0.25-0.67-0.29-1.42-0.12-2.25
		c0.17-0.5,0.5-1,1-1.5s1-0.83,1.5-1h2.75l9.62,0.25l3.25-0.75l0.25-8.75l-0.25-3l-7.88-0.25l-9,1c-0.67-0.67-1.42-1.04-2.25-1.12
		c-0.83-0.08-1.5-0.46-2-1.12c-0.67-1-1-2.08-1-3.25c0-1.17,0-2.33,0-3.5c0.5-7,0.88-14.1,1.12-21.31
		c0.25-7.21,1.21-14.14,2.88-20.81l3.75-3h2l1.25,0.75h16.62c3.33,0.5,6.67,0.79,10,0.88c3.33,0.08,6.42,0.96,9.25,2.62
		c0.67,3,1.12,6.08,1.38,9.25c0.25,3.17,0.62,6.38,1.12,9.62v13l0.25,0.25v12.75l0.25,2.75c-0.17,0.5-0.5,1-1,1.5s-1,0.83-1.5,1h-2
		l-5.75-0.75h-10.25v2.5l0.25,7l-0.25,1.25h15.75c0.67,0.33,1.21,0.71,1.62,1.12c0.42,0.42,0.79,0.96,1.12,1.62v2
		c-0.33,0.67-0.71,1.21-1.12,1.62c-0.42,0.42-0.96,0.79-1.62,1.12h-2l-0.25-0.25h-13v1l0.25,0.25v15.88h1.25
		c2.5-0.67,5.04-1.25,7.62-1.75c2.58-0.5,5.21-0.83,7.88-1c0.5,0.17,1,0.5,1.5,1s0.83,1,1,1.5v2c-0.33,0.67-0.79,1.25-1.38,1.75
		c-0.58,0.5-1.21,0.92-1.88,1.25c-8,1.17-15.9,2.67-23.69,4.5C252.64,238.33,244.83,240.08,237,241.75z M260.12,184.62v-14.75
		c-1.33-0.33-2.81-0.5-4.44-0.5s-3.19,0-4.69,0l-5,1l-0.75,14.75l1.25,0.25c2-0.33,4.04-0.62,6.12-0.88
		c2.08-0.25,4.25-0.29,6.5-0.12L260.12,184.62z M259.88,162.12v-11.38l-0.5-4.25H247.5c0,2.83-0.17,5.58-0.5,8.25
		c-0.33,2.67-0.58,5.38-0.75,8.12h1.5l2-0.75H259.88z M280.12,162.12v-0.5l-1.75-13.88l-11-1l-0.5,3.75l0.25,0.25v11.38l9.75,0.5
		l2.75-0.5l0.25,0.25L280.12,162.12z M280.38,185.12v-10.25l-0.25-5.5h-0.5l-3.5,0.75l-8.75-0.75v15.5h10.25L280.38,185.12z
		 M316.38,249.75c-2.83-1-5.62-2.04-8.38-3.12c-2.75-1.08-5.38-2.38-7.88-3.88c-0.5-0.5-0.75-1.04-0.75-1.62c0-0.58,0-1.21,0-1.88
		c0.17-0.5,0.5-1,1-1.5s1-0.83,1.5-1h2.25c1.5,1,3.12,1.79,4.88,2.38c1.75,0.58,3.46,1.12,5.12,1.62V238l-0.25-0.25V226.5
		c-0.33-1.75-0.5-3.58-0.5-5.5c0-1.92,0-3.79,0-5.62l0.25-8.25l-0.5-17l0.5-2.25l-11.25-0.5c-1.5,0.17-3.08,0.33-4.75,0.5
		c-1.67,0.17-3.25,0.33-4.75,0.5l-1.75-1.25c-0.33-0.5-0.62-1.08-0.88-1.75c-0.25-0.67-0.29-1.33-0.12-2
		c0.17-0.67,0.54-1.21,1.12-1.62c0.58-0.42,1.12-0.79,1.62-1.12c2.5,0.17,4.88,0.12,7.12-0.12s4.62-0.38,7.12-0.38l12.75,0.75
		c2.42-0.33,4.79-0.58,7.12-0.75c2.33-0.17,4.75-0.25,7.25-0.25c2.17,0.33,4.25,0.71,6.25,1.12c2,0.42,3.92,1.04,5.75,1.88
		c0.5,0.5,0.75,1.12,0.75,1.88s0,1.46,0,2.12c-3,4.5-6.33,8.92-10,13.25c-3.67,4.33-7.5,8.5-11.5,12.5h-2l-2-1.75H321l-0.25,12.75
		l0.5,2.88v11.25l0.5,9c-0.33,0.67-0.73,1.21-1.19,1.62c-0.46,0.42-1.02,0.79-1.69,1.12L316.38,249.75z M322.25,178.12
		c-3.42-2.5-6.75-5.25-10-8.25s-6.62-5.67-10.12-8c-0.33-0.5-0.54-1.02-0.62-1.56c-0.08-0.54-0.12-1.14-0.12-1.81
		c0.17-0.5,0.5-1,1-1.5s1-0.83,1.5-1h2.25c1.67,0.83,3.25,1.94,4.75,3.31s3.08,2.4,4.75,3.06c1.83-2.75,3.77-5.38,5.81-7.88
		c2.04-2.5,4.14-5,6.31-7.5c-5.25-1.17-10.58-1.79-16-1.88c-5.42-0.08-10.88-0.21-16.38-0.38l-0.75,0.25l-2.75-1.5
		c-0.33-0.5-0.54-1-0.62-1.5c-0.08-0.5-0.12-1.08-0.12-1.75c0.17-0.5,0.5-1,1-1.5s1-0.83,1.5-1l9.75-0.25c6,0,11.89,0.33,17.69,1
		c5.79,0.67,11.44,1.83,16.94,3.5c0.33,0.5,0.54,1,0.62,1.5c0.08,0.5,0.12,1.08,0.12,1.75c-2.83,3.83-5.92,7.56-9.25,11.19
		c-3.33,3.62-6.17,7.44-8.5,11.44c0.83,1,1.83,1.88,3,2.62c1.17,0.75,2.08,1.71,2.75,2.88v2.25c-0.17,0.5-0.5,1-1,1.5s-1,0.83-1.5,1
		H322.25z M321.5,206.88c2.5-3.17,5.25-6.29,8.25-9.38c3-3.08,5.42-6.38,7.25-9.88l-7.75-0.5l-8.5,0.75l-0.25,10l0.25,9.25h0.5
		L321.5,206.88z"/>
	<path d="M258.88,371.25c-1.33-0.17-2.56-0.58-3.69-1.25c-1.12-0.67-2.19-1.5-3.19-2.5c-2.5-2.5-4.38-5.25-5.62-8.25
		s-1.88-6.29-1.88-9.88c0.33-5.17,1.58-10,3.75-14.5c2.17-4.5,5.21-8.67,9.12-12.5c2.33-2.17,4.79-4.17,7.38-6
		c2.58-1.83,5.29-3.25,8.12-4.25v-0.5l-1.5-21h-1.75l-6.75,1H251l-4.25,0.5c-0.5-0.17-1-0.5-1.5-1s-0.83-1-1-1.5v-2.12l1-1.75
		c0.67-0.83,1.54-1.25,2.62-1.25c1.08,0,2.12-0.08,3.12-0.25h11.88l8.25-1v-4.75l-0.25-0.25V264c0.17-0.67,0.38-1.33,0.62-2
		c0.25-0.67,0.62-1.25,1.12-1.75s1.04-0.75,1.62-0.75c0.58,0,1.21,0,1.88,0c0.5,0.17,1,0.5,1.5,1s0.83,1,1,1.5v2l-0.5,1v13.25
		l0.25,4.5h1l5-0.75h10l3.75,0.5h12.5l11.12-1c0.67,0.33,1.21,0.71,1.62,1.12c0.42,0.42,0.79,0.96,1.12,1.62v2
		c-0.17,0.5-0.5,1.02-1,1.56c-0.5,0.54-1,0.9-1.5,1.06l-11.38,1h-12.5l-3.75-0.5h-10l-5.75,0.75v2.5l1.25,17h1.5l6.75-1.5h12.25
		l1.5,0.25c0-1.67,0.08-3.29,0.25-4.88c0.17-1.58,0.75-3.04,1.75-4.38c0.5-0.33,1-0.54,1.5-0.62c0.5-0.08,1.08-0.12,1.75-0.12
		c0.67,0.33,1.21,0.71,1.62,1.12c0.42,0.42,0.79,0.96,1.12,1.62v2.5c-0.5,1-0.75,2.12-0.75,3.38s0,2.46,0,3.62
		c3,0.33,5.73,1.29,8.19,2.88c2.46,1.58,4.85,3.38,7.19,5.38c3.83,4.67,6.33,9.75,7.5,15.25c1.17,5.5,1.58,11.25,1.25,17.25
		c-0.67,2.42-1.04,4.92-1.12,7.5c-0.08,2.58-0.71,4.88-1.88,6.88c-0.5,0.33-1,0.54-1.5,0.62c-0.5,0.08-1.08,0.12-1.75,0.12
		c-0.5-0.17-1-0.5-1.5-1s-0.83-1-1-1.5l-0.25-2c0.33-2.67,0.75-5.31,1.25-7.94s0.67-5.35,0.5-8.19c0-4.5-0.62-8.67-1.88-12.5
		c-1.25-3.83-3.33-7.42-6.25-10.75c-1.67-1.17-3.38-2.21-5.12-3.12c-1.75-0.92-3.62-1.54-5.62-1.88
		c-2.67,7.5-6.04,14.58-10.12,21.25c-4.08,6.67-8.71,13.12-13.88,19.38l0.5,5.25c-0.17,0.5-0.5,1-1,1.5s-1,0.83-1.5,1h-2l-2.25-2
		v-0.5h-0.5c-2.67,2-5.38,3.79-8.12,5.38C265.5,370.46,262.38,371.25,258.88,371.25z M266.12,361.75l9.75-7v-1l-2.75-33.62h-0.5
		c-2.17,1-4.25,2.33-6.25,4c-2,1.67-3.92,3.42-5.75,5.25c-2.67,3.17-4.81,6.54-6.44,10.12c-1.62,3.58-2.44,7.54-2.44,11.88
		c0.33,2.25,1,4.29,2,6.12c1,1.83,2.29,3.58,3.88,5.25l3.25,1.25L266.12,361.75z M282.88,346.87c3.33-5,6.58-10.08,9.75-15.25
		c3.17-5.17,5.67-10.58,7.5-16.25h-12l-8,1.75v2l2.5,28L282.88,346.87z"/>
	<path d="M254,494.75l-3-1.5c-2-9.58-3.5-19.29-4.5-29.12c-1-9.83-1.83-19.67-2.5-29.5V409.5l1.5-2.75c0.5-0.33,1-0.54,1.5-0.62
		c0.5-0.08,1.08-0.12,1.75-0.12c0.5,0.17,1,0.5,1.5,1s0.83,1,1,1.5v26.12c0.67,8.67,1.38,17.25,2.12,25.75s1.79,17.04,3.12,25.62
		h0.5c2.5-1.5,4.77-3.52,6.81-6.06c2.04-2.54,4.48-4.06,7.31-4.56c0.5,0.17,1,0.5,1.5,1s0.83,1,1,1.5v2.38
		c-2.33,2.67-4.86,5.29-7.56,7.88c-2.71,2.58-5.56,4.62-8.56,6.12L254,494.75z M331.5,471.12c-0.5-0.17-1-0.5-1.5-1s-0.83-1-1-1.5
		c-2.58-9-4.83-18-6.75-27c-1.92-9-4.04-18.04-6.38-27.12l1.5-2.75c0.5-0.33,1-0.54,1.5-0.62c0.5-0.08,1.08-0.12,1.75-0.12
		c0.5,0.17,1,0.5,1.5,1s0.83,1,1,1.5c2.42,9.25,4.62,18.46,6.62,27.62c2,9.17,4.08,18.33,6.25,27.5c-0.17,0.5-0.5,1-1,1.5
		s-1,0.83-1.5,1H331.5z"/>
	<path d="M300.38,627.5l-2.75-1.5c-0.33-0.5-0.54-1-0.62-1.5c-0.08-0.5-0.12-1.08-0.12-1.75c0.17-0.67,0.54-1.21,1.12-1.62
		c0.58-0.42,1.12-0.79,1.62-1.12c2.83-1.17,5.54-2.67,8.12-4.5c2.58-1.83,4.96-4.08,7.12-6.75c1.17-1.75,2.21-3.5,3.12-5.25
		c0.92-1.75,1.29-3.79,1.12-6.12c-0.33-1.83-0.96-3.58-1.88-5.25c-0.92-1.67-2.04-3.25-3.38-4.75c-1.5-1.17-3.12-2.12-4.88-2.88
		s-3.54-1.29-5.38-1.62h-10.25c-5.33,1.17-10.58,2.71-15.75,4.62c-5.17,1.92-9.92,4.71-14.25,8.38c-0.67,1-1.29,2.04-1.88,3.12
		c-0.58,1.08-1.46,1.88-2.62,2.38h-2c-0.5-0.17-1.02-0.5-1.56-1c-0.54-0.5-0.9-1-1.06-1.5l-0.25-3.5c1.17-8.17,2.35-16.33,3.56-24.5
		c1.21-8.17,2.48-16.25,3.81-24.25c0.5-0.33,1-0.54,1.5-0.62c0.5-0.08,1.08-0.12,1.75-0.12c0.5,0.17,1,0.5,1.5,1s0.83,1,1,1.5v3
		c-0.67,6-1.29,12-1.88,18c-0.58,6-1.54,11.92-2.88,17.75h0.5c4.5-3.17,9.33-5.62,14.5-7.38c5.17-1.75,10.5-3.12,16-4.12h10.25
		c3.33,0.33,6.42,1.17,9.25,2.5c2.83,1.33,5.46,3.25,7.88,5.75c2.17,2.5,3.71,5.29,4.62,8.38c0.92,3.08,1.29,6.38,1.12,9.88
		c-0.83,3.17-2.27,6.15-4.31,8.94c-2.04,2.79-4.4,5.36-7.06,7.69c-2.17,2-4.5,3.71-7,5.12C305.62,625.29,303.04,626.5,300.38,627.5z
		 M297.88,543c-4.83-3-9.92-5.58-15.25-7.75c-5.33-2.17-10.5-4.67-15.5-7.5c-0.33-0.5-0.54-1-0.62-1.5
		c-0.08-0.5-0.12-1.08-0.12-1.75c0.17-0.5,0.5-1,1-1.5s1-0.83,1.5-1h2.25c5,2.33,10.08,4.62,15.25,6.88
		c5.17,2.25,10.08,4.96,14.75,8.12c0.33,0.5,0.54,1,0.62,1.5c0.08,0.5,0.12,1.08,0.12,1.75c-0.17,0.5-0.5,1-1,1.5s-1,0.83-1.5,1
		L297.88,543z"/>
	<path d="M29,372.25c-0.17-0.17-0.42-0.29-0.75-0.38c-0.33-0.08-0.62-0.25-0.88-0.5s-0.42-0.54-0.5-0.88
		c-0.08-0.33-0.21-0.58-0.38-0.75l-0.25-1v-38.88c0.17-1.67,0.25-3.38,0.25-5.12s0.04-3.46,0.12-5.12c0.08-1.67,0.21-3.29,0.38-4.88
		c0.17-1.58,0.17-3.29,0-5.12h-0.5c-1.5,2.17-2.75,4.42-3.75,6.75c-1,2.33-2.21,4.58-3.62,6.75c-1.42,2.17-2.67,4.46-3.75,6.88
		c-1.08,2.42-2.21,4.71-3.38,6.88c-0.17,0.17-0.38,0.33-0.62,0.5c-0.25,0.17-0.54,0.25-0.88,0.25c-0.33,0-0.62,0-0.88,0
		s-0.54,0-0.88,0c-0.17-0.17-0.42-0.29-0.75-0.38c-0.33-0.08-0.62-0.25-0.88-0.5s-0.42-0.54-0.5-0.88
		c-0.08-0.33-0.21-0.58-0.38-0.75v-2.5c2.33-5.67,5.04-11.17,8.12-16.5c3.08-5.33,6.08-10.71,9-16.12
		c2.92-5.42,5.69-10.98,8.31-16.69c2.62-5.71,5.69-11.06,9.19-16.06c0.33-0.17,0.62-0.38,0.88-0.62s0.54-0.42,0.88-0.5
		c0.33-0.08,0.71-0.12,1.12-0.12c0.42,0,0.79,0,1.12,0c0.17,0.17,0.42,0.29,0.75,0.38c0.33,0.08,0.62,0.25,0.88,0.5
		s0.42,0.54,0.5,0.88c0.08,0.33,0.21,0.58,0.38,0.75v2c-1.5,2-2.88,4.08-4.12,6.25c-1.25,2.17-2.38,4.38-3.38,6.62s-2,4.48-3,6.69
		c-1,2.21-2,4.48-3,6.81c0.5,0.67,0.75,1.5,0.75,2.5s0,1.96,0,2.88c0,0.92,0,1.83,0,2.75c0,0.92,0,1.88,0,2.88
		c-0.17,1.83-0.25,3.67-0.25,5.5c0,1.83-0.12,3.67-0.38,5.5c-0.25,1.83-0.33,3.67-0.25,5.5c0.08,1.83,0.04,3.67-0.12,5.5v39.88
		c-0.17,0.17-0.29,0.42-0.38,0.75c-0.08,0.33-0.25,0.62-0.5,0.88s-0.56,0.42-0.94,0.5c-0.38,0.08-0.65,0.21-0.81,0.38H29z
		 M105.25,369.5c-3-0.5-6.15-0.79-9.44-0.88c-3.29-0.08-6.52-0.29-9.69-0.62c-3.17-0.33-6.42-0.46-9.75-0.38
		c-3.33,0.08-6.58,0.12-9.75,0.12l-16.75,0.75l-2.75-1.5c-0.17-0.17-0.33-0.38-0.5-0.62c-0.17-0.25-0.25-0.54-0.25-0.88
		c0-0.33,0-0.62,0-0.88s0-0.54,0-0.88c0.17-0.17,0.29-0.42,0.38-0.75c0.08-0.33,0.25-0.62,0.5-0.88s0.54-0.42,0.88-0.5
		c0.33-0.08,0.58-0.21,0.75-0.38l26.5-0.75v-9.62l-0.5-30.75l0.25-5.25l-0.25-6h-4.25l-3.75,0.25l-6.75-0.25
		c-1.17,0.17-2.33,0.33-3.5,0.5c-1.17,0.17-2.38,0.25-3.62,0.25s-2.5,0-3.75,0s-2.46,0-3.62,0l-2.75-1.5
		c-0.17-0.17-0.33-0.38-0.5-0.62c-0.17-0.25-0.25-0.54-0.25-0.88c0-0.33,0-0.62,0-0.88s0-0.54,0-0.88c0.17-0.17,0.29-0.42,0.38-0.75
		c0.08-0.33,0.25-0.62,0.5-0.88s0.54-0.42,0.88-0.5c0.33-0.08,0.58-0.21,0.75-0.38c1.83,0,3.71,0,5.62,0c1.92,0,3.75-0.08,5.5-0.25
		c1.75-0.17,3.54-0.29,5.38-0.38c1.83-0.08,3.67-0.12,5.5-0.12l3.75,0.25l4.5-0.25c0-2.5,0-5.04,0-7.62c0-2.58,0.04-5.19,0.12-7.81
		c0.08-2.62,0.08-5.23,0-7.81c-0.08-2.58,0.46-4.96,1.62-7.12c0.17-0.17,0.38-0.33,0.62-0.5c0.25-0.17,0.54-0.25,0.88-0.25
		c0.33,0,0.62,0,0.88,0s0.54,0,0.88,0c0.17,0.17,0.42,0.29,0.75,0.38c0.33,0.08,0.62,0.25,0.88,0.5s0.42,0.54,0.5,0.88
		c0.08,0.33,0.21,0.58,0.38,0.75v8.75l-0.25,19.62h4.25l16.12-0.5c1.33,0.17,2.71,0.25,4.12,0.25c1.42,0,2.79,0.12,4.12,0.38
		c1.33,0.25,2.75,0.33,4.25,0.25c1.5-0.08,2.75,0.38,3.75,1.38c0.17,0.17,0.33,0.38,0.5,0.62c0.17,0.25,0.25,0.54,0.25,0.88
		c0,0.33,0,0.62,0,0.88s0,0.54,0,0.88c-0.17,0.17-0.29,0.42-0.38,0.75c-0.08,0.33-0.25,0.62-0.5,0.88s-0.54,0.42-0.88,0.5
		c-0.33,0.08-0.58,0.21-0.75,0.38l-2.5,0.25c-1.83-0.17-3.71-0.33-5.62-0.5c-1.92-0.17-3.83-0.29-5.75-0.38
		c-1.92-0.08-3.86-0.12-5.81-0.12c-1.96,0-3.94,0-5.94,0l-9.25,0.5v6l0.25,5.25l-0.25,8.25l0.5,32.38c2.5,0.33,5,0.58,7.5,0.75
		c2.5,0.17,5.06,0.29,7.69,0.38c2.62,0.08,5.19,0.21,7.69,0.38c2.5,0.17,4.92,0.67,7.25,1.5c0.17,0.17,0.33,0.38,0.5,0.62
		c0.17,0.25,0.25,0.54,0.25,0.88c0,0.33,0,0.62,0,0.88s0,0.54,0,0.88c-0.17,0.17-0.29,0.42-0.38,0.75c-0.08,0.33-0.25,0.62-0.5,0.88
		s-0.54,0.42-0.88,0.5c-0.33,0.08-0.58,0.21-0.75,0.38L105.25,369.5z"/>
	<path d="M64.12,501.75c-1.17-0.33-2.29-0.67-3.38-1c-1.08-0.33-2.12-0.79-3.12-1.38c-1-0.58-2-1.12-3-1.62s-2-1.08-3-1.75
		c-0.17-0.33-0.38-0.62-0.62-0.88s-0.42-0.54-0.5-0.88c-0.08-0.33-0.12-0.71-0.12-1.12c0-0.42,0-0.79,0-1.12
		c0.17-0.17,0.29-0.42,0.38-0.75c0.08-0.33,0.25-0.62,0.5-0.88s0.54-0.42,0.88-0.5c0.33-0.08,0.58-0.21,0.75-0.38h2
		c0.5,0.33,1,0.58,1.5,0.75c0.5,0.17,0.96,0.42,1.38,0.75c0.42,0.33,0.88,0.62,1.38,0.88s1.08,0.38,1.75,0.38v-10.5H36.62l-5.88,0.5
		l-2.5-2.88v-2c0.17-0.17,0.29-0.42,0.38-0.75c0.08-0.33,0.25-0.62,0.5-0.88s0.54-0.42,0.88-0.5c0.33-0.08,0.58-0.21,0.75-0.38
		l4.62-0.5h25.5v-8h-6.5l-17.75,0.5c-1.67-0.17-3.4-0.21-5.19-0.12c-1.79,0.08-3.52,0.04-5.19-0.12c-1.67-0.17-3.38-0.21-5.12-0.12
		c-1.75,0.08-3.29-0.46-4.62-1.62c-0.17-0.17-0.33-0.38-0.5-0.62c-0.17-0.25-0.25-0.54-0.25-0.88c0-0.33,0-0.62,0-0.88
		s0-0.54,0-0.88c0.17-0.17,0.29-0.42,0.38-0.75c0.08-0.33,0.25-0.62,0.5-0.88s0.54-0.42,0.88-0.5c0.33-0.08,0.58-0.21,0.75-0.38
		h7.25l15.12,0.5l20.5-0.5v-7c-2.67,0-5.33-0.04-8-0.12c-2.67-0.08-5.33-0.12-8-0.12c-2.67,0-5.38,0.04-8.12,0.12
		c-2.75,0.08-5.25-0.46-7.5-1.62c-0.17-0.17-0.33-0.38-0.5-0.62c-0.17-0.25-0.25-0.54-0.25-0.88c0-0.33,0-0.62,0-0.88s0-0.54,0-0.88
		c0.17-0.17,0.29-0.42,0.38-0.75c0.08-0.33,0.25-0.62,0.5-0.88s0.54-0.42,0.88-0.5c0.33-0.08,0.58-0.21,0.75-0.38h20.12l9.75,0.25
		v-6c-1.83-0.5-3.75-0.75-5.75-0.75s-4.04,0-6.12,0c-2.08,0-4.17,0.04-6.25,0.12c-2.08,0.08-3.88-0.46-5.38-1.62
		c-0.33-0.5-0.58-1-0.75-1.5c-0.17-0.5-0.33-1-0.5-1.5c-0.17-0.5-0.25-1.04-0.25-1.62c0-0.58,0-1.12,0-1.62
		c0.17-1.17,0.29-2.42,0.38-3.75c0.08-1.33,0.21-2.58,0.38-3.75c0.17-1.17,0.33-2.38,0.5-3.62c0.17-1.25,0.67-2.42,1.5-3.5
		c0.83-0.5,1.71-0.83,2.62-1c0.92-0.17,1.88-0.25,2.88-0.25s2,0,3,0s2,0,3,0l10.75,0.75v-6.75l-14.5-0.5l-2.75,0.25l-8-0.5
		l-4.38,0.5c-0.17-0.17-0.46-0.25-0.88-0.25c-0.42,0-0.75-0.08-1-0.25c-0.25-0.17-0.5-0.38-0.75-0.62s-0.46-0.46-0.62-0.62
		c-0.17-0.17-0.33-0.38-0.5-0.62c-0.17-0.25-0.25-0.54-0.25-0.88c0-0.33,0-0.62,0-0.88s0-0.54,0-0.88c0.17-0.17,0.29-0.42,0.38-0.75
		c0.08-0.33,0.25-0.62,0.5-0.88s0.54-0.42,0.88-0.5c0.33-0.08,0.58-0.21,0.75-0.38l9.88-0.25l6.5,0.5l4.75-0.25l10,0.5V399
		l-0.25-8.25l1.5-2.75c0.17-0.17,0.38-0.33,0.62-0.5c0.25-0.17,0.54-0.25,0.88-0.25c0.33,0,0.62,0,0.88,0s0.54,0,0.88,0
		c0.17,0.17,0.42,0.29,0.75,0.38c0.33,0.08,0.62,0.25,0.88,0.5s0.42,0.54,0.5,0.88c0.08,0.33,0.21,0.58,0.38,0.75l0.25,11.75
		c3,0,5.96,0.04,8.88,0.12c2.92,0.08,5.88,0.21,8.88,0.38c3,0.17,6.02,0.29,9.06,0.38c3.04,0.08,5.81,0.71,8.31,1.88
		c0.17,0.17,0.33,0.38,0.5,0.62c0.17,0.25,0.25,0.54,0.25,0.88c0,0.33,0,0.62,0,0.88s0,0.54,0,0.88c-0.17,0.17-0.29,0.42-0.38,0.75
		c-0.08,0.33-0.25,0.62-0.5,0.88s-0.54,0.42-0.88,0.5c-0.33,0.08-0.58,0.21-0.75,0.38l-2,0.25c-2.58-0.17-5.17-0.38-7.75-0.62
		c-2.58-0.25-5.21-0.42-7.88-0.5c-2.67-0.08-5.29-0.17-7.88-0.25c-2.58-0.08-5.21-0.12-7.88-0.12v6.75c1.83,0.17,3.67,0.31,5.5,0.44
		c1.83,0.12,3.67,0.31,5.5,0.56c1.83,0.25,3.75,0.29,5.75,0.12c2-0.17,3.67,0.33,5,1.5c0.67,1.33,1,2.71,1,4.12
		c0,1.42,0.04,2.88,0.12,4.38c0.08,1.5,0.17,3,0.25,4.5c0.08,1.5,0.12,3,0.12,4.5c-0.17,0.33-0.38,0.71-0.62,1.12
		c-0.25,0.42-0.58,0.71-1,0.88c-0.42,0.17-0.79,0.38-1.12,0.62c-0.33,0.25-0.67,0.46-1,0.62l-2.75,0.25
		c-1.17-0.33-2.33-0.54-3.5-0.62c-1.17-0.08-2.38-0.12-3.62-0.12s-2.5,0-3.75,0s-2.54,0-3.88,0l-2,0.25v6.5c2.67,0,5.25,0,7.75,0
		s5.04,0.12,7.62,0.38c2.58,0.25,5.17,0.42,7.75,0.5c2.58,0.08,4.92,0.79,7,2.12c0.67,0.83,0.96,1.79,0.88,2.88
		c-0.08,1.08-0.08,2.12,0,3.12c0.08,1,0.12,2.04,0.12,3.12c0,1.08,0.08,2.12,0.25,3.12c1,0.33,2.04,0.54,3.12,0.62
		c1.08,0.08,2.21,0.12,3.38,0.12c1.17,0,2.29,0,3.38,0c1.08,0,2.04,0.5,2.88,1.5c0.17,0.17,0.33,0.38,0.5,0.62
		c0.17,0.25,0.25,0.54,0.25,0.88c0,0.33,0,0.62,0,0.88s0,0.54,0,0.88c-0.17,0.17-0.29,0.42-0.38,0.75c-0.08,0.33-0.25,0.62-0.5,0.88
		s-0.54,0.42-0.88,0.5c-0.33,0.08-0.58,0.21-0.75,0.38h-7.25l-3.75-0.25v0.5l0.5,11c-0.17,0.17-0.29,0.44-0.38,0.81
		c-0.08,0.38-0.25,0.69-0.5,0.94s-0.54,0.42-0.88,0.5c-0.33,0.08-0.58,0.21-0.75,0.38L91.62,483c-1.83-0.17-3.79-0.21-5.88-0.12
		c-2.08,0.08-4.08,0-6-0.25c-1.92-0.25-3.88-0.38-5.88-0.38s-3.92-0.17-5.75-0.5v9.75l0.5,7.75c-0.17,0.17-0.29,0.42-0.38,0.75
		c-0.08,0.33-0.25,0.62-0.5,0.88s-0.54,0.42-0.88,0.5c-0.33,0.08-0.58,0.21-0.75,0.38H64.12z M61.12,431.12v-4.75l0.25-3.75
		l-16.75-0.75c-0.33,0.67-0.54,1.38-0.62,2.12c-0.08,0.75-0.17,1.5-0.25,2.25c-0.08,0.75-0.12,1.5-0.12,2.25s0,1.54,0,2.38
		l17.25,0.5L61.12,431.12z M92.88,475.37v-0.75l-0.5-7.25l-24.25-1v8c2,0.33,4.04,0.5,6.12,0.5c2.08,0,4.12,0.12,6.12,0.38
		s4.04,0.33,6.12,0.25c2.08-0.08,4.12-0.04,6.12,0.12L92.88,475.37z M84.38,431.37v-1l-0.5-6.5c-1.33,0-2.62-0.04-3.88-0.12
		c-1.25-0.08-2.5-0.21-3.75-0.38c-1.25-0.17-2.54-0.25-3.88-0.25c-1.33,0-2.58-0.08-3.75-0.25l-0.25,8.5h1.25l13.25-0.25
		L84.38,431.37z M92.12,460.12v-3.75l-0.25-3c-2-0.17-3.96-0.33-5.88-0.5c-1.92-0.17-3.83-0.29-5.75-0.38
		c-1.92-0.08-3.88-0.12-5.88-0.12s-4,0-6,0v6.75L92.12,460.12z"/>
	<path d="M59.88,624.75c-3.17-0.17-6.04-1-8.62-2.5c-2.58-1.5-5.04-3.33-7.38-5.5c-6.17-9.42-10.25-19.5-12.25-30.25
		s-3.5-21.54-4.5-32.38V536.5c0.17-1.33,0.25-2.79,0.25-4.38c0-1.58,0.5-2.88,1.5-3.88c0.5-0.5,1.04-0.75,1.62-0.75
		c0.58,0,1.21,0,1.88,0c0.5,0.17,1,0.5,1.5,1s0.83,1,1,1.5v2l-0.5,4.5v17.62c0.83,10.17,2.21,20.29,4.12,30.38
		c1.92,10.08,5.79,19.5,11.62,28.25c2,1.83,4.29,3.17,6.88,4c2.58,0.83,5.38,1.08,8.38,0.75c3.67-1.17,7.25-2.64,10.75-4.44
		c3.5-1.79,6.67-4.27,9.5-7.44c1.17-1.5,2.27-3.08,3.31-4.75c1.04-1.67,1.98-3.42,2.81-5.25l2-1.5l2.25-3.25
		c0.5-0.33,1-0.54,1.5-0.62c0.5-0.08,1.08-0.12,1.75-0.12c0.5,0.17,1,0.5,1.5,1s0.83,1,1,1.5v2.25c-2.33,3.33-4.58,6.75-6.75,10.25
		c-2.17,3.5-4.96,6.79-8.38,9.88c-4,2.83-8.17,5.25-12.5,7.25C69.79,624.25,65.04,625.08,59.88,624.75z"/>
	<path d="M82.12,754c-4.17-1.67-8.21-3.5-12.12-5.5c-3.92-2-7.54-4.83-10.88-8.5c-3.5-4.25-6-8.92-7.5-14
		c-1.5-5.08-2-10.46-1.5-16.12c1.33-6.33,3.12-12.54,5.38-18.62c2.25-6.08,5.79-11.54,10.62-16.38l6-4.62h-1.25
		c-9.17,1.58-18.44,2.92-27.81,4c-9.38,1.08-18.65,2.12-27.81,3.12c-0.5-0.17-1-0.5-1.5-1s-0.83-1-1-1.5v-2.25
		c0.17-0.75,0.54-1.33,1.12-1.75c0.58-0.42,1.21-0.79,1.88-1.12c12.25-1,24.42-2.38,36.5-4.12c12.08-1.75,24.21-3.12,36.38-4.12
		h14.12c0.5,0.17,1,0.5,1.5,1s0.83,1,1,1.5v2c-0.17,0.5-0.5,1-1,1.5s-1,0.83-1.5,1c-6.42,0.67-12.58,2.19-18.5,4.56
		c-5.92,2.38-11.29,5.73-16.12,10.06c-3.17,5.5-5.83,11.17-8,17c-2.17,5.83-3.08,12.08-2.75,18.75c0.83,3.17,1.83,6.25,3,9.25
		c1.17,3,3,5.79,5.5,8.38c2.83,2.83,5.96,4.96,9.38,6.38c3.42,1.42,6.71,3.12,9.88,5.12c0.33,0.5,0.54,1,0.62,1.5
		c0.08,0.5,0.12,1.08,0.12,1.75c-0.17,0.5-0.5,1-1,1.5s-1,0.83-1.5,1L82.12,754z"/>
</g>
<g>
</g>
<g>
</g>
<g>
</g>
<g>
</g>
<g>
</g>
<g>
</g>
</svg>
